<?xml version="1.0" encoding="utf-8"?>
<!-- Uploaded to: SVG Repo, www.svgrepo.com, Generator: SVG Repo Mixer Tools -->
<svg fill="#000000" width="800px" height="800px" viewBox="0 0 32 32" version="1.1" xmlns="http://www.w3.org/2000/svg">
<title>gears</title>
<path d="M9.502 6.109c0 0-0 0-0 0-1.874 0-3.393 1.519-3.393 3.393s1.519 3.393 3.393 3.393c1.874 0 3.393-1.519 3.393-3.393v0c-0.002-1.873-1.52-3.391-3.392-3.393h-0zM9.502 10.395c0 0-0 0-0 0-0.493 0-0.893-0.4-0.893-0.893s0.4-0.893 0.893-0.893c0.493 0 0.893 0.4 0.893 0.893 0 0 0 0 0 0v0c-0.001 0.493-0.4 0.892-0.893 0.893h-0zM29.428 19.078h-0.264l0.188-0.186c0.285-0.283 0.482-0.654 0.547-1.069l0.001-0.011c0.013-0.076 0.020-0.164 0.020-0.254 0-0.444-0.178-0.846-0.467-1.139l-1.808-1.808c-0.291-0.289-0.691-0.467-1.133-0.467-0.005 0-0.009 0-0.014 0h0.001c-0.52 0.008-0.988 0.223-1.326 0.567l-0.185 0.185 0.001-0.262c0.001-0.026 0.002-0.056 0.002-0.087 0-0.938-0.745-1.702-1.675-1.732l-0.003-0h-2.557c-0.934 0.030-1.68 0.794-1.68 1.733 0 0.030 0.001 0.061 0.002 0.091l-0-0.004v0.262l-0.184-0.185c-0.338-0.345-0.807-0.561-1.326-0.569l-0.002-0h-0.001c-0.248 0.003-0.482 0.061-0.691 0.162l0.010-0.004c0.072-0.176 0.114-0.38 0.115-0.595v-0c-0.008-0.509-0.219-0.968-0.556-1.299l-0.049-0.049 0.070 0c0.019 0.001 0.040 0.001 0.062 0.001 0.927 0 1.683-0.732 1.723-1.649l0-0.004v-2.407c-0.040-0.921-0.796-1.652-1.723-1.652-0.022 0-0.044 0-0.065 0.001l0.003-0h-0.070l0.052-0.052c0.342-0.313 0.555-0.762 0.555-1.26 0-0.452-0.176-0.864-0.463-1.169l0.001 0.001-1.702-1.702c-0.304-0.288-0.716-0.464-1.169-0.464-0.5 0-0.949 0.215-1.261 0.558l-0.001 0.001-0.047 0.047 0-0.069c0.001-0.024 0.002-0.053 0.002-0.082 0-0.923-0.734-1.675-1.651-1.703l-0.003-0h-2.408c-0.919 0.028-1.653 0.78-1.653 1.703 0 0.029 0.001 0.057 0.002 0.086l-0-0.004v0.069l-0.050-0.050c-0.313-0.344-0.762-0.558-1.262-0.558-0.453 0-0.864 0.176-1.17 0.464l0.001-0.001-1.702 1.702c-0.282 0.306-0.455 0.717-0.455 1.168 0 0.498 0.211 0.947 0.549 1.262l0.001 0.001 0.050 0.050-0.073-0c-0.025-0.001-0.054-0.002-0.083-0.002-0.923 0-1.674 0.734-1.702 1.65l-0 0.003v2.408c0.028 0.919 0.78 1.653 1.703 1.653 0.029 0 0.057-0.001 0.086-0.002l-0.004 0h0.070l-0.050 0.050c-0.338 0.333-0.549 0.793-0.556 1.302v0.001c-0 0.003-0 0.007-0 0.011 0 0.435 0.176 0.829 0.461 1.115l1.702 1.703c0.286 0.285 0.681 0.461 1.116 0.461 0.004 0 0.009-0 0.013-0h0.001c0.509-0.008 0.967-0.219 1.299-0.555l0-0 0.051-0.051-0 0.073c-0.001 0.019-0.001 0.040-0.001 0.062 0 0.927 0.732 1.683 1.649 1.723l0.004 0h2.407c0.921-0.040 1.652-0.796 1.652-1.723 0-0.022-0-0.044-0.001-0.065l0 0.003v-0.072l0.048 0.048c0.321 0.344 0.778 0.559 1.284 0.559 0.007 0 0.013-0 0.019-0h-0.001c0.217-0 0.425-0.043 0.614-0.121l-0.011 0.004c-0.096 0.211-0.152 0.458-0.152 0.717 0 0.506 0.213 0.963 0.554 1.285l0.001 0.001 0.188 0.189-0.267-0.001c-0.020-0.001-0.043-0.001-0.067-0.001-0.942 0-1.71 0.742-1.752 1.673l-0 0.004v2.559c0.042 0.935 0.811 1.677 1.753 1.677 0.023 0 0.047-0 0.070-0.001l-0.003 0h0.263l-0.185 0.184c-0.345 0.339-0.562 0.809-0.569 1.329l-0 0.001c-0 0.004-0 0.008-0 0.013 0 0.442 0.178 0.842 0.467 1.132l1.809 1.809c0.29 0.29 0.69 0.469 1.132 0.469 0.004 0 0.008-0 0.013-0h-0.001c0.522-0.007 0.991-0.225 1.329-0.572l0-0 0.187-0.187-0.001 0.267c-0.001 0.026-0.002 0.056-0.002 0.086 0 0.938 0.745 1.701 1.675 1.732l0.003 0h2.557c0.936-0.041 1.679-0.81 1.679-1.753 0-0.023-0-0.046-0.001-0.069l0 0.003v-0.262l0.188 0.19c0.339 0.341 0.806 0.555 1.323 0.562l0.002 0h0.008c0.002 0 0.005 0 0.007 0 0.441 0 0.84-0.178 1.13-0.467l-0 0 1.803-1.805c0.292-0.29 0.473-0.691 0.473-1.134 0-0.002 0-0.004 0-0.007v0c-0.007-0.523-0.222-0.994-0.566-1.336l-0.185-0.185 0.261 0.001c0.026 0.001 0.056 0.002 0.086 0.002 0.938 0 1.701-0.745 1.732-1.675l0-0.003v-2.556c-0.031-0.933-0.794-1.678-1.732-1.678-0.030 0-0.061 0.001-0.090 0.002l0.004-0zM13.671 14.169l-0.402-0.406c-0.019-0.020-0.045-0.026-0.066-0.044-0.122-0.095-0.261-0.178-0.409-0.243l-0.013-0.005c-0.139-0.037-0.3-0.060-0.465-0.064l-0.003-0c-0.175 0.024-0.332 0.067-0.481 0.127l0.013-0.005c-0.024 0.011-0.050 0.011-0.074 0.024-0.288 0.165-0.622 0.307-0.972 0.409l-0.033 0.008c-0.027 0.008-0.046 0.028-0.073 0.037-0.083 0.033-0.155 0.070-0.222 0.115l0.005-0.003c-0.279 0.148-0.483 0.407-0.552 0.717l-0.001 0.007c-0.024 0.074-0.043 0.161-0.051 0.25l-0 0.005c-0.002 0.027-0.015 0.049-0.015 0.076v0.577h-0.706l0.003-0.57c0-0.029-0.014-0.054-0.016-0.083-0.008-0.088-0.025-0.169-0.049-0.246l0.002 0.008c-0.066-0.317-0.265-0.578-0.534-0.727l-0.006-0.003c-0.069-0.047-0.148-0.088-0.232-0.121l-0.008-0.003c-0.025-0.009-0.043-0.028-0.069-0.035-0.384-0.11-0.718-0.252-1.029-0.429l0.023 0.012c-0.024-0.014-0.051-0.013-0.076-0.024-0.067-0.030-0.145-0.056-0.227-0.074l-0.008-0.001c-0.068-0.021-0.148-0.037-0.23-0.045l-0.005-0c-0.004-0-0.008-0-0.012-0-0.076 0-0.15 0.007-0.222 0.020l0.008-0.001c-0.089 0.008-0.171 0.025-0.249 0.049l0.009-0.002c-0.078 0.031-0.144 0.065-0.207 0.104l0.005-0.003c-0.082 0.043-0.152 0.090-0.217 0.143l0.002-0.002c-0.020 0.018-0.046 0.024-0.066 0.043l-0.409 0.409-0.499-0.5 0.406-0.402c0.020-0.020 0.027-0.047 0.046-0.068 0.052-0.061 0.098-0.13 0.138-0.204l0.003-0.006c0.038-0.059 0.073-0.128 0.102-0.199l0.003-0.008c0.044-0.113 0.069-0.243 0.069-0.379 0-0.111-0.017-0.218-0.048-0.319l0.002 0.008c-0.020-0.093-0.047-0.176-0.083-0.253l0.003 0.007c-0.012-0.025-0.011-0.052-0.025-0.077-0.165-0.288-0.306-0.62-0.408-0.97l-0.008-0.033c-0.007-0.026-0.027-0.044-0.036-0.069-0.035-0.091-0.076-0.169-0.125-0.241l0.003 0.004c-0.038-0.068-0.078-0.126-0.122-0.18l0.002 0.002c-0.058-0.061-0.123-0.115-0.192-0.162l-0.004-0.003c-0.053-0.044-0.113-0.085-0.176-0.12l-0.006-0.003c-0.062-0.028-0.136-0.053-0.213-0.071l-0.008-0.002c-0.074-0.024-0.16-0.042-0.248-0.051l-0.005-0c-0.025-0.001-0.046-0.015-0.072-0.015h-0.577v-0.707l0.577 0.003c0.16-0.002 0.311-0.035 0.45-0.092l-0.008 0.003c0.054-0.024 0.099-0.048 0.142-0.075l-0.005 0.003c0.090-0.047 0.168-0.1 0.239-0.161l-0.002 0.001c0.043-0.038 0.082-0.079 0.118-0.122l0.002-0.002c0.056-0.065 0.106-0.138 0.147-0.216l0.003-0.007c0.027-0.047 0.054-0.102 0.076-0.16l0.003-0.008c0.010-0.028 0.029-0.049 0.037-0.078 0.11-0.383 0.251-0.716 0.428-1.027l-0.012 0.023c0.013-0.024 0.012-0.051 0.024-0.075 0.032-0.070 0.060-0.152 0.078-0.237l0.001-0.008c0.020-0.064 0.035-0.14 0.043-0.218l0-0.005c0-0.007 0-0.014 0-0.022 0-0.077-0.007-0.153-0.021-0.227l0.001 0.008c-0.008-0.084-0.024-0.161-0.046-0.234l0.002 0.009c-0.032-0.082-0.068-0.153-0.111-0.219l0.003 0.005c-0.041-0.077-0.085-0.143-0.136-0.204l0.002 0.002c-0.019-0.022-0.026-0.050-0.047-0.070l-0.408-0.407 0.499-0.499 0.401 0.405c0.056 0.046 0.119 0.089 0.185 0.125l0.006 0.003c0.041 0.032 0.086 0.063 0.134 0.091l0.006 0.003c0.161 0.088 0.352 0.142 0.555 0.148l0.002 0 0.003 0.001 0.021-0.006c0.192-0.007 0.371-0.057 0.53-0.14l-0.007 0.003c0.022-0.011 0.045-0.006 0.067-0.017 0.287-0.165 0.619-0.306 0.968-0.407l0.032-0.008c0.026-0.007 0.044-0.026 0.069-0.035 0.088-0.034 0.164-0.074 0.235-0.12l-0.004 0.003c0.072-0.039 0.133-0.081 0.19-0.128l-0.002 0.002c0.056-0.055 0.107-0.114 0.152-0.178l0.003-0.004c0.047-0.057 0.091-0.121 0.128-0.188l0.003-0.006c0.028-0.062 0.053-0.136 0.071-0.212l0.002-0.008c0.024-0.072 0.041-0.156 0.050-0.243l0-0.005c0.002-0.027 0.016-0.051 0.016-0.079v-0.577h0.707l-0.003 0.57c-0 0.029 0.014 0.053 0.016 0.082 0.008 0.091 0.025 0.175 0.051 0.255l-0.002-0.009c0.020 0.085 0.045 0.159 0.076 0.23l-0.003-0.008c0.040 0.074 0.083 0.138 0.131 0.197l-0.002-0.002c0.047 0.068 0.098 0.128 0.155 0.182l0 0c0.055 0.046 0.117 0.088 0.182 0.125l0.006 0.003c0.066 0.044 0.142 0.083 0.222 0.115l0.008 0.003c0.026 0.009 0.045 0.029 0.072 0.037 0.383 0.11 0.716 0.251 1.026 0.427l-0.023-0.012c0.020 0.011 0.043 0.007 0.064 0.017 0.153 0.081 0.333 0.131 0.525 0.138l0.002 0 0.017 0.005 0.011-0.003c0.2-0.007 0.386-0.059 0.551-0.148l-0.007 0.003c0.057-0.032 0.105-0.064 0.151-0.101l-0.002 0.002c0.069-0.038 0.128-0.078 0.184-0.122l-0.002 0.002 0.408-0.408 0.5 0.5-0.405 0.401c-0.020 0.020-0.027 0.047-0.046 0.068-0.052 0.061-0.099 0.13-0.138 0.204l-0.003 0.006c-0.038 0.059-0.073 0.127-0.102 0.199l-0.003 0.008c-0.021 0.066-0.037 0.144-0.046 0.225l-0 0.005c-0.013 0.066-0.020 0.142-0.020 0.22 0 0.006 0 0.013 0 0.019v-0.001c0.008 0.083 0.023 0.159 0.045 0.233l-0.002-0.009c0.019 0.093 0.047 0.175 0.082 0.252l-0.003-0.008c0.012 0.025 0.011 0.052 0.025 0.077 0.165 0.288 0.307 0.622 0.409 0.972l0.008 0.033c0.008 0.030 0.028 0.052 0.038 0.080 0.024 0.061 0.049 0.113 0.077 0.162l-0.003-0.006c0.046 0.088 0.098 0.165 0.158 0.234l-0.001-0.002c0.036 0.043 0.074 0.081 0.114 0.117l0.001 0.001c0.071 0.062 0.151 0.116 0.237 0.161l0.007 0.003c0.037 0.023 0.080 0.046 0.125 0.066l0.007 0.003c0.131 0.054 0.283 0.087 0.442 0.090h0.579v0.707l-0.577-0.003c-0.027 0-0.049 0.013-0.075 0.015-0.093 0.009-0.178 0.027-0.26 0.053l0.008-0.002c-0.314 0.069-0.572 0.269-0.718 0.537l-0.003 0.006c-0.045 0.067-0.085 0.144-0.116 0.225l-0.003 0.008c-0.009 0.025-0.029 0.044-0.036 0.070-0.109 0.381-0.25 0.713-0.426 1.022l0.012-0.023c-0.014 0.025-0.013 0.054-0.026 0.080-0.030 0.066-0.055 0.143-0.073 0.223l-0.001 0.008c-0.021 0.068-0.038 0.149-0.046 0.231l-0 0.005c-0.002 0.027-0.004 0.058-0.004 0.089 0 0.215 0.063 0.415 0.173 0.583l-0.003-0.004c0.043 0.082 0.090 0.152 0.144 0.217l-0.002-0.002c0.018 0.021 0.024 0.047 0.044 0.066l0.408 0.408zM26.459 27.098l-0.48-0.484c-0.019-0.019-0.044-0.025-0.063-0.043-0.064-0.055-0.137-0.104-0.214-0.145l-0.006-0.003c-0.179-0.097-0.391-0.154-0.617-0.154-0.188 0-0.367 0.039-0.529 0.11l0.008-0.003c-0.025 0.012-0.052 0.011-0.077 0.025-0.311 0.178-0.67 0.332-1.049 0.442l-0.035 0.009c-0.026 0.007-0.045 0.027-0.070 0.036-0.086 0.034-0.159 0.072-0.228 0.118l0.004-0.003c-0.278 0.148-0.48 0.407-0.548 0.716l-0.001 0.007c-0.024 0.074-0.043 0.16-0.051 0.249l-0 0.005c-0.002 0.026-0.015 0.049-0.015 0.076v0.691h-0.908l0.004-0.686c0-0.028-0.014-0.051-0.016-0.079-0.008-0.092-0.026-0.176-0.051-0.257l0.002 0.008c-0.020-0.085-0.045-0.16-0.077-0.231l0.003 0.008c-0.086-0.143-0.181-0.267-0.289-0.379l0.001 0.001c-0.051-0.041-0.107-0.080-0.166-0.114l-0.006-0.003c-0.072-0.049-0.153-0.091-0.24-0.124l-0.008-0.003c-0.024-0.008-0.041-0.026-0.065-0.033-0.412-0.118-0.77-0.271-1.104-0.462l0.024 0.013c-0.026-0.015-0.055-0.014-0.081-0.026-0.066-0.030-0.143-0.056-0.223-0.074l-0.008-0.002c-0.070-0.022-0.152-0.038-0.236-0.046l-0.005-0c-0.168 0.005-0.329 0.029-0.482 0.070l0.015-0.003c-0.075 0.030-0.139 0.063-0.199 0.101l0.005-0.003c-0.083 0.043-0.154 0.091-0.22 0.146l0.002-0.002c-0.021 0.018-0.048 0.025-0.068 0.045l-0.487 0.488-0.64-0.641 0.486-0.484c0.019-0.019 0.026-0.045 0.044-0.065 0.054-0.064 0.102-0.135 0.143-0.211l0.003-0.006c0.107-0.164 0.171-0.365 0.171-0.581 0-0.111-0.017-0.218-0.048-0.319l0.002 0.008c-0.020-0.094-0.047-0.176-0.082-0.254l0.003 0.008c-0.012-0.025-0.011-0.052-0.024-0.076-0.178-0.31-0.331-0.669-0.44-1.047l-0.009-0.035c-0.007-0.026-0.027-0.044-0.036-0.069-0.035-0.090-0.076-0.167-0.124-0.239l0.003 0.004c-0.216-0.321-0.56-0.542-0.958-0.59l-0.006-0.001c-0.028-0.002-0.053-0.016-0.082-0.016h-0.691v-0.908l0.691 0.004c0.16-0.002 0.312-0.035 0.45-0.092l-0.008 0.003c0.053-0.024 0.098-0.047 0.14-0.074l-0.005 0.003c0.091-0.047 0.169-0.101 0.241-0.162l-0.002 0.001c0.108-0.098 0.198-0.212 0.267-0.34l0.003-0.007c0.027-0.046 0.053-0.1 0.075-0.156l0.003-0.008c0.010-0.028 0.029-0.050 0.037-0.079 0.118-0.413 0.271-0.772 0.462-1.106l-0.013 0.024c0.014-0.025 0.013-0.053 0.025-0.078 0.030-0.066 0.056-0.144 0.074-0.226l0.001-0.008c0.021-0.068 0.037-0.148 0.045-0.23l0-0.005c0-0.005 0-0.010 0-0.015 0-0.075-0.007-0.148-0.020-0.219l0.001 0.007c-0.008-0.089-0.025-0.171-0.049-0.25l0.002 0.009c-0.030-0.076-0.063-0.141-0.102-0.202l0.003 0.005c-0.044-0.084-0.092-0.157-0.148-0.223l0.002 0.002c-0.017-0.019-0.023-0.044-0.042-0.063l-0.489-0.49 0.641-0.641 0.484 0.486c0.054 0.044 0.114 0.085 0.177 0.12l0.006 0.003c0.044 0.035 0.093 0.068 0.144 0.097l0.006 0.003c0.159 0.087 0.348 0.141 0.549 0.146l0.002 0 0.005 0.001c0.011 0 0.021-0.008 0.032-0.008 0.187-0.008 0.361-0.056 0.517-0.137l-0.007 0.003c0.022-0.011 0.047-0.006 0.069-0.018 0.309-0.178 0.667-0.331 1.044-0.44l0.034-0.008c0.026-0.007 0.044-0.027 0.069-0.035 0.088-0.034 0.164-0.073 0.234-0.12l-0.004 0.003c0.072-0.040 0.134-0.082 0.191-0.129l-0.002 0.002c0.177-0.15 0.304-0.354 0.356-0.586l0.001-0.007c0.024-0.074 0.042-0.159 0.051-0.248l0-0.005c0.002-0.027 0.016-0.050 0.016-0.077v-0.691h0.908l-0.004 0.687c-0 0.028 0.014 0.052 0.016 0.080 0.008 0.092 0.026 0.176 0.051 0.257l-0.002-0.008c0.069 0.316 0.269 0.574 0.539 0.722l0.006 0.003c0.067 0.044 0.143 0.084 0.224 0.116l0.008 0.003c0.026 0.009 0.044 0.029 0.071 0.036 0.412 0.117 0.77 0.27 1.104 0.461l-0.024-0.013c0.021 0.012 0.045 0.007 0.066 0.017 0.152 0.080 0.331 0.13 0.521 0.137l0.002 0 0.020 0.005 0.008-0.002c0.202-0.006 0.39-0.059 0.555-0.149l-0.007 0.003c0.056-0.031 0.103-0.063 0.148-0.099l-0.003 0.002c0.070-0.038 0.13-0.078 0.186-0.124l-0.002 0.002 0.488-0.488 0.641 0.641-0.486 0.481c-0.020 0.020-0.026 0.046-0.044 0.066-0.055 0.064-0.104 0.137-0.145 0.214l-0.003 0.007c-0.106 0.165-0.168 0.366-0.168 0.582 0 0.114 0.017 0.223 0.050 0.326l-0.002-0.008c0.019 0.089 0.045 0.167 0.079 0.242l-0.003-0.008c0.013 0.027 0.012 0.056 0.026 0.082 0.178 0.31 0.331 0.668 0.441 1.045l0.009 0.035c0.008 0.030 0.028 0.052 0.038 0.081 0.077 0.2 0.193 0.369 0.341 0.505l0.001 0.001c0.073 0.064 0.155 0.12 0.244 0.166l0.007 0.003c0.035 0.022 0.077 0.044 0.12 0.063l0.007 0.003c0.132 0.055 0.284 0.088 0.444 0.090h0.692v0.906l-0.691-0.004c-0.028 0-0.051 0.014-0.078 0.016-0.093 0.009-0.179 0.027-0.261 0.053l0.009-0.002c-0.317 0.073-0.577 0.276-0.723 0.55l-0.003 0.006c-0.040 0.061-0.077 0.132-0.106 0.206l-0.003 0.008c-0.010 0.028-0.031 0.048-0.040 0.078-0.116 0.41-0.268 0.767-0.458 1.1l0.013-0.024c-0.015 0.026-0.014 0.055-0.026 0.082-0.055 0.137-0.097 0.296-0.119 0.462l-0.001 0.010c-0.002 0.026-0.003 0.056-0.003 0.086 0 0.21 0.061 0.407 0.167 0.572l-0.003-0.004c0.044 0.087 0.094 0.161 0.152 0.229l-0.001-0.002c0.017 0.020 0.023 0.045 0.042 0.064l0.488 0.488zM22.031 18.504c-0 0-0.001 0-0.001 0-1.948 0-3.526 1.579-3.526 3.526s1.579 3.526 3.526 3.526c1.947 0 3.526-1.578 3.526-3.525v-0c-0.002-1.947-1.579-3.524-3.525-3.527h-0zM22.031 23.057c-0 0-0.001 0-0.001 0-0.567 0-1.026-0.46-1.026-1.026s0.46-1.026 1.026-1.026c0.567 0 1.026 0.46 1.026 1.026 0 0 0 0.001 0 0.001v-0c-0.002 0.566-0.46 1.024-1.025 1.025h-0z"></path>
</svg>